PathFileType	4	(X/Y/Z)	C:/Users/beibeiliu/ov580/test_trc/User1\sequence.16_training_dense_left.trc
DataRate	CameraRate	NumFrames	NumMarkers	Units	OrigDataRate	OrigDataStartFrame	OrigNumFrames
120	120	22	19	mm	120	34	268
Frame#	Time	ThumbCMC			ThumbMCP			ThumbIP			ThumbTip			IndexMCP			IndexPIP			IndexTip			MiddleMCP			MiddlePIP			MiddleTip			RingMCP			RingPIP			RingTip			PinkyMCP			PinkyPIP			PinkyTip			BackHand1			BackHand2			BackHand3	
		X0	Y0	Z0	X1	Y1	Z1	X2	Y2	Z2	X3	Y3	Z3	X4	Y4	Z4	X5	Y5	Z5	X6	Y6	Z6	X7	Y7	Z7	X8	Y8	Z8	X9	Y9	Z9	X10	Y10	Z10	X11	Y11	Z11	X12	Y12	Z12	X13	Y13	Z13	X14	Y14	Z14	X15	Y15	Z15	X16	Y16	Z16	X17	Y17	Z17	X18	Y18	Z18	
33	0.275	-192.622	60.0209	62.8881	-171.38	70.228	49.6616	-154.078	89.1201	37.2209	-139.782	96.2924	34.1504	-190.78	76.3117	-25.0593	-186.09	44.4803	-34.2854	-190.057	36.3827	0.904321	-210.961	68.4324	-35.9876	-201.638	36.2373	-38.5664	-202.757	25.7284	-1.80985	-232.955	63.6859	-39.2314	-221.394	35.2331	-44.0852	-218.675	25.2738	-10.1036	-271.42	65.2749	-23.9839	-274.361	70.4372	-40.0369	-287.283	82.1554	-53.0627	-250.734	78.0074	23.3393	-257.178	66.8554	53.809	-225.281	80.7241	45.9463	
34	0.283333	-196.115	62.3318	61.815	-172.545	72.8745	50.7418	-158.92	90.1492	38.4015	-143.443	103.531	31.6543	-190.584	78.4794	-24.2732	-185.738	43.6986	-31.3824	-191.846	36.097	-0.91526	-211.626	68.3903	-37.5991	-201.436	34.6987	-36.0242	-203.825	29.5213	3.33646	-237.116	62.6113	-39.5623	-217.07	33.6166	-43.0262	-217.77	25.4279	-8.82772	-270.64	60.3964	-19.9546	-277.427	67.218	-41.2515	-287.217	79.6725	-57.0948	-253.113	76.5822	22.5511	-260.378	63.8354	56.4345	-228.744	80.8004	44.5193	
35	0.291667	-197.04	65.6116	63.0493	-176.997	80.989	47.9201	-164.571	96.4419	36.3727	-148.083	110.588	29.6551	-191.503	80.7457	-26.2931	-181.143	46.9059	-31.0726	-189.329	38.4049	-0.893076	-216.637	66.8704	-39.1338	-199.126	37.0283	-35.2109	-201.115	30.4689	2.85129	-238.574	60.3369	-40.6739	-216.943	32.0758	-42.631	-215.087	26.0182	-11.1742	-273.826	59.2355	-25.8722	-279.692	63.0391	-43.3151	-290.444	70.6098	-57.1364	-258.849	75.4489	18.9626	-264.657	63.7678	53.3649	-231.369	79.5146	44.6348	
36	0.3	-200.592	72.1975	62.1692	-182.31	87.1885	46.6417	-169.846	103.974	35.4025	-152.527	121.229	33.8265	-198.279	81.2405	-28.3798	-186.503	52.3472	-34.9398	-191.611	41.0018	-0.722069	-217.993	69.7225	-37.9574	-197.703	41.2689	-37.6642	-203.556	30.8885	0.729636	-240.003	59.517	-39.9527	-217.744	35.011	-44.8322	-213.34	29.0319	-7.64082	-271.837	55.2968	-27.9321	-277.583	57.7801	-44.4771	-292.921	64.5865	-61.6012	-263.439	69.7105	19.2718	-266.543	62.8143	50.8956	-235.865	81.137	42.4053	
37	0.308333	-205.153	76.7445	59.1757	-187.43	94.411	45.0408	-176.153	110.716	34.8218	-162.059	128.512	33.7305	-198.63	81.3745	-31.0259	-183.902	53.7271	-31.6481	-186.861	46.6467	2.52164	-221.272	68.6045	-36.9894	-198.032	41.1539	-35.6455	-202.334	33.5611	1.78959	-240.515	55.5932	-40.7029	-211.374	33.8096	-41.0546	-213.63	27.3442	-5.59778	-272.156	47.3126	-22.7576	-278.385	47.593	-42.7092	-288.179	57.9149	-59.527	-261.571	68.2903	21.1673	-270.762	57.7904	50.6862	-237.05	85.0722	41.1025	
38	0.316667	-210.164	80.5911	57.7183	-190.575	99.6798	45.8114	-182.648	120.266	32.8142	-172.418	132.725	28.3518	-202.937	86.942	-28.7153	-180.414	60.1776	-30.3983	-187.979	50.471	3.28008	-218.257	71.2717	-37.1724	-194.959	43.3136	-33.7586	-200.26	38.057	6.48486	-235.922	54.9695	-41.7763	-209.456	33.9391	-41.4732	-207.479	29.4638	-7.61682	-268.995	42.7719	-27.1045	-276.46	39.6162	-43.5504	-290.862	45.1905	-65.3867	-264.91	62.5923	17.959	-267.493	58.7728	50.1287	-241.962	86.6318	40.5928	
39	0.325	-214.449	85.1767	56.1026	-198.571	100.896	41.3175	-191.897	126.951	26.3346	-183.695	146.093	24.6709	-203.475	86.512	-32.6312	-183.068	65.5243	-32.3836	-186.619	58.2133	5.32906	-219.741	66.0228	-40.7445	-192.45	45.734	-31.4951	-196.249	40.4296	3.82953	-235.049	53.3576	-41.1621	-206.175	34.4243	-39.3326	-205.403	30.9921	-4.14668	-266.391	35.5425	-29.1517	-271.203	32.4022	-46.3371	-282.148	33.9331	-68.6335	-265.556	62.9647	17.27	-269.635	53.7605	48.6471	-245.539	86.0821	40.6305	
40	0.333333	-217.584	95.1573	54.4934	-206.962	109.773	36.89	-204.228	132.655	23.4976	-198.257	150.433	23.4872	-208.701	88.2574	-34.9423	-183.495	70.8344	-30.2198	-188.217	62.6105	3.56872	-220.45	66.2993	-40.4138	-190.668	51.0402	-32.8283	-191.487	51.2376	6.64506	-234.253	47.3546	-41.8591	-201.908	36.7428	-40.1995	-199.971	38.124	-3.37681	-260.056	30.9823	-26.1279	-263.27	23.0692	-44.758	-273.055	25.9648	-67.3981	-267.629	54.3001	12.4011	-269.628	50.5615	48.6321	-253.507	83.2228	37.1623	
41	0.341667	-227.05	98.9576	52.9336	-215.768	111.384	35.7368	-218.225	138.273	18.0061	-217.458	153.853	16.0002	-214.981	91.7991	-34.0021	-186.52	77.2503	-33.287	-189.006	69.1551	1.97229	-220.345	64.7269	-41.9012	-188.073	56.4711	-31.9799	-192.992	53.0744	7.46771	-231.909	42.7937	-41.4088	-197.513	41.2007	-38.6472	-194.943	44.1004	-4.20694	-253.756	19.6986	-26.7248	-253.661	15.3283	-45.6223	-262.54	10.4903	-69.4676	-265.74	49.5487	13.3087	-267.824	48.2296	47.7882	-257.148	81.786	36.3284	
42	0.35	-235.17	98.8189	47.5873	-229.014	118.735	33.6429	-234.088	135.428	11.2352	-234.778	152.986	9.73485	-220.371	94.4407	-35.9208	-187.757	82.8248	-30.4513	-192.938	80.3569	5.77076	-219.142	64.6963	-42.3525	-187.4	60.4069	-30.961	-192.902	65.3351	9.65458	-227.096	40.8161	-39.7489	-192.225	40.3978	-34.3334	-192.256	48.767	-2.10338	-244.914	15.1425	-25.1539	-244.018	10.4956	-44.5016	-250.363	5.73111	-66.6592	-264.045	44.245	15.3762	-266.585	41.8878	48.5051	-261.647	76.6734	33.96	
43	0.358333	-243.778	100.222	47.5186	-240.475	115.807	28.2792	-247.41	133.635	12.2963	-254.195	153.739	5.42692	-223.604	88.266	-38.7612	-192.152	88.8967	-33.724	-194.819	84.4978	2.64039	-223.043	62.2248	-41.0058	-186.948	69.2472	-30.4048	-192.867	69.1181	6.77855	-221.152	41.3516	-40.97	-190.479	46.1068	-36.1143	-190.252	51.6796	-0.168303	-237.748	15.0718	-26.6337	-234.532	7.11364	-41.7021	-239.218	1.12425	-61.7232	-262.212	40.7506	11.9922	-265.808	34.7909	47.9922	-265.317	74.0892	32.7503	
44	0.366667	-248.803	95.7538	46.6401	-249.968	117.762	26.6955	-262.93	133.831	5.89206	-267.661	146.373	-0.743599	-228.739	90.5455	-38.5431	-196.263	90.556	-34.3086	-202.62	88.3646	3.72331	-224.826	65.1646	-41.4177	-190.462	70.6059	-33.6167	-194.651	75.6623	6.96966	-217.561	40.4032	-41.228	-188.637	50.1433	-36.1286	-189.761	56.9445	-0.200046	-231.665	13.9662	-21.6168	-225.117	4.08478	-42.1016	-229.14	-2.09481	-65.0482	-259.47	36.3706	13.3417	-264.473	37.1813	46.2845	-269.575	71.3145	27.0808	
45	0.375	-254.307	96.549	42.6071	-257.407	115.02	21.524	-266.389	127.04	4.29884	-274.607	141.884	-0.838896	-231.068	90.1213	-40.8526	-199.311	94.4752	-32.6739	-206.867	92.3235	1.81179	-222.242	65.0632	-43.8252	-189.893	72.7525	-30.009	-195.999	77.7711	5.83257	-220.104	43.3029	-41.3483	-189.443	54.0325	-36.7823	-192.197	61.8042	0.266397	-225.729	11.0259	-25.4211	-218.916	3.20791	-38.7288	-222.148	-4.23622	-59.0121	-257.47	30.2153	13.2787	-265.183	34.1404	47.5959	-270.18	66.6498	27.822	
46	0.383333	-261.257	96.088	38.996	-264.576	114.763	22.525	-276.058	124.64	3.66037	-287.02	138.207	-8.033	-234.668	90.0626	-42.0747	-202.314	94.5285	-36.0478	-210.123	90.19	0.749951	-223.733	67.0533	-45.5548	-191.456	79.9806	-31.4621	-198.347	80.6071	4.8305	-216.755	38.6172	-40.3043	-188.454	59.0155	-36.5562	-190.234	63.8739	-2.01445	-221.437	11.19	-25.5223	-216.72	7.72043	-36.8688	-213.857	-2.56025	-58.0591	-257.158	32.4622	10.3089	-261.79	31.4502	46.7927	-271.418	65.2612	25.5252	
47	0.391667	-266.029	96.5094	38.7583	-269.031	110.061	18.1474	-288.502	123.562	0.96795	-298.019	136.181	-4.04959	-234.589	92.0598	-44.3788	-207.417	100.857	-36.2568	-214.245	98.2935	0.773842	-225.405	66.3855	-44.4988	-193.089	82.0321	-32.9773	-201.875	87.0423	5.41318	-211.834	44.9499	-42.0072	-188.711	65.0731	-35.6057	-192.797	70.9021	-0.53999	-217.802	16.83	-22.4756	-207.968	9.57815	-38.4119	-205.377	-0.176129	-60.8186	-252.147	31.5743	13.2234	-261.612	32.2239	42.7185	-273.742	62.4305	23.9581	
48	0.4	-269.678	93.8756	40.5955	-274.486	108.404	18.2879	-295.311	119.448	0.561513	-305.966	128.412	-9.37735	-239.193	92.4294	-44.356	-209.253	102.892	-34.3803	-218.191	99.256	0.760826	-224.21	67.5517	-44.1025	-197.503	91.3923	-32.395	-207.692	93.3461	6.10798	-214.906	49.7496	-39.3465	-186.176	69.682	-31.9766	-199.449	78.8931	-0.174906	-210.747	17.798	-23.5399	-203.043	13.4285	-40.9959	-200.645	5.46273	-58.4429	-249.925	29.465	13.0058	-256.992	30.45	41.8833	-272.048	56.4996	24.8165	
49	0.408333	-275.416	94.8899	36.3791	-279.313	106.314	17.9656	-297.71	114.498	-0.316282	-313.319	124.571	-7.1776	-239.418	95.188	-44.6764	-213.865	109.472	-31.3432	-223.908	104.649	0.365639	-224.329	72.8888	-45.2742	-199.354	94.1818	-32.1503	-208.999	93.18	8.2601	-210.931	52.5902	-40.4294	-189.076	78.6458	-31.6445	-197.015	82.7033	0.719347	-212.646	25.9384	-19.0686	-201.787	21.4272	-38.2278	-194.276	7.8418	-58.8501	-249.208	31.2616	9.66372	-256.407	33.9479	43.4602	-273.128	57.9564	22.7751	
50	0.416667	-276.449	94.813	41.071	-284.304	106.62	17.7805	-300.42	113.569	0.666207	-317.642	123.779	-3.70924	-246.559	96.8472	-41.6876	-215.425	110.568	-31.2562	-226.893	108.232	0.465838	-225.498	75.4957	-43.9093	-201.467	99.0645	-31.5184	-209.55	98.2212	5.76589	-213.453	56.4367	-39.4559	-188.984	82.5989	-30.2126	-201.389	87.0052	2.16927	-206.955	28.4881	-22.276	-197.249	23.2388	-35.2639	-194.153	16.0898	-57.0924	-248.053	33.3549	11.9932	-254.932	30.899	42.7763	-273.749	57.0866	22.3866	
51	0.425	-278.072	95.4049	41.1781	-287.96	109.282	20.8039	-302.198	113.652	0.563464	-322.449	122.454	-6.21107	-244.944	98.4723	-43.0943	-219.333	115.127	-31.3724	-231.997	107.383	2.41932	-226.681	78.9552	-43.6887	-205.496	104.182	-34.3342	-215.608	99.7291	9.2931	-213.629	62.6197	-40.0678	-192.738	89.4286	-31.146	-199.61	90.4605	0.673329	-205.113	30.9992	-19.2637	-194.795	28.9566	-39.4777	-190.459	23.977	-60.4399	-247.122	36.6892	9.68888	-251.769	31.843	43.6046	-275.506	59.0322	21.213	
52	0.433333	-276.535	91.8902	38.4806	-285.944	106.922	21.2839	-309.542	112.35	-1.70699	-323.385	121.258	-6.57438	-244.849	97.9854	-43.0623	-219.523	116.334	-32.042	-233.012	108.347	1.37268	-222.391	82.8254	-45.3449	-205.722	107.965	-32.5132	-219.588	106.099	6.41495	-209.877	62.3618	-37.5882	-192.917	92.47	-30.7116	-202.026	93.7099	2.6982	-202.77	35.4511	-21.334	-192.395	33.9888	-40.672	-185.37	23.9233	-62.0454	-244.715	39.0431	7.93437	-251.372	31.0755	44.8842	-274.359	59.5919	18.8707	
53	0.441667	-278.544	94.5864	40.7515	-290.916	107.138	17.7413	-310.142	113.696	-0.432302	-322.368	121.632	-5.9336	-245.821	101.217	-42.9373	-220.786	121.178	-30.8722	-231.909	114.887	0.158906	-225.476	89.2713	-45.2558	-205.415	112.506	-27.9955	-219.498	105.619	7.72629	-211.726	71.1889	-40.2002	-192.029	95.0959	-29.994	-202.285	100.262	0.867612	-204.473	40.384	-23.6286	-193.421	39.8419	-41.5892	-186.775	31.3386	-61.2312	-243.568	36.9075	10.7413	-251.176	34.0665	41.6002	-274.392	61.7989	18.0992	
54	0.45	-278.242	93.859	36.6543	-287.606	107.175	19.8251	-308.221	113.4	0.877932	-321.634	121.333	-5.22052	-244.515	103.464	-43.02	-219.396	123.732	-28.119	-231.297	115.168	1.17699	-222.452	86.3429	-44.2826	-205.84	113.637	-26.3439	-221.101	106.707	8.73557	-207.885	69.3289	-38.4372	-189.227	97.1006	-26.6236	-202.564	100.135	1.67363	-200.943	41.76	-26.1448	-190.966	41.0256	-41.4531	-183.241	36.4914	-63.1615	-242.454	38.4156	7.58296	-247.221	34.8607	42.4847	-271.682	63.3077	19.7087	
